# xmcd CD database file
#
# Track frame offsets:
#	150
#	13990
#	26777
#	40540
#	55240
#	68815
#	83027
#	96302
#	110815
#	123340
#	137852
#	151015
#	164365
#	178015
#	193352
#	206627
#	220352
#	233740
#	246752
#	260365
#	274277
#	286952
#	300452
#
# Disc length: 4187 seconds
#
# Revision: 0
# Processed by: cddbd v1.5.1PL0 Copyright (c) Steve Scherf et al.
# Submitted via: CDex 1.51
#
DISCID=54105917
DTITLE=Gene Kardos and Joel Shaw - Gene Kardos and Joel Shaw Volume 2
DYEAR=1900
DGENRE=Jazz
TTITLE0=Stop the Sun, Stop the Moon
TTITLE1=Business in F
TTITLE2=Barnacle Bill
TTITLE3=Sweet Violets
TTITLE4=Some of these Days
TTITLE5=Alexander's Ragtime Band
TTITLE6=Sing a New Song
TTITLE7=If It Ain't Love
TTITLE8=Business in Q
TTITLE9=My Extraordinary Girl
TTITLE10=Oh! Mo'nah
TTITLE11=Goofus
TTITLE12=Dinah
TTITLE13=Mouthful o' Jam
TTITLE14=Whistle and Blow Your Blues Away
TTITLE15=Darktown Strutters' Ball
TTITLE16=Call of the Freaks
TTITLE17=How'm I Doin'
TTITLE18=The Scat Song
TTITLE19=Minnie the Moocher's Wedding Day
TTITLE20=When You're Getting Along With Your Gal
TTITLE21=Who's Your Little Who-Zis
TTITLE22=One More Kiss, Then Goodnight
EXTD=
EXTT0=
EXTT1=
EXTT2=
EXTT3=
EXTT4=
EXTT5=
EXTT6=
EXTT7=
EXTT8=
EXTT9=
EXTT10=
EXTT11=
EXTT12=
EXTT13=
EXTT14=
EXTT15=
EXTT16=
EXTT17=
EXTT18=
EXTT19=
EXTT20=
EXTT21=
EXTT22=
PLAYORDER=
